<?xml version="1.0" encoding="utf-8"?><svg xml:space="preserve" viewBox="0 0 100 100" y="0" x="0" xmlns="http://www.w3.org/2000/svg" id="Layer_1" version="1.1" width="128px" height="128px" xmlns:xlink="http://www.w3.org/1999/xlink" style="width:100%;height:100%;background-size:initial;background-repeat-y:initial;background-repeat-x:initial;background-position-y:initial;background-position-x:initial;background-origin:initial;background-image:initial;background-color:rgb(255, 255, 255,0);background-clip:initial;background-attachment:initial;animation-play-state:paused" ><g class="ldl-scale" style="transform-origin:50% 50%;transform:rotate(0deg) scale(0.8, 0.8);animation-play-state:paused" ><path fill="#e15c64" d="M50 7.5c5.3 3.5 8.8 9.6 8.8 16.4S55.3 36.8 50 40.3c-5.3-3.5-8.8-9.6-8.8-16.4S44.7 11 50 7.5z" style="fill:rgb(168, 151, 100);animation-play-state:paused" ></path>
<path fill="#f47e5f" d="M23 44.6c5.9 3.4 12.9 3.4 18.6.5-.4-6.4-3.9-12.4-9.8-15.9s-12.9-3.4-18.6-.5c.4 6.4 3.8 12.5 9.8 15.9z" style="fill:rgb(168, 151, 100);animation-play-state:paused" ></path>
<path fill="#f7b26a" d="M31.8 70.7c5.9-3.4 9.4-9.5 9.8-15.9-5.7-2.8-12.7-2.9-18.6.6s-9.4 9.5-9.8 15.9c5.7 2.8 12.7 2.8 18.6-.6z" style="fill:rgb(168, 151, 100);animation-play-state:paused" ></path>
<path fill="#e15c64" d="M58.8 76.1c0-6.9-3.5-12.9-8.8-16.4-5.3 3.5-8.8 9.6-8.8 16.4S44.7 89 50 92.5c5.3-3.5 8.8-9.6 8.8-16.4z" style="fill:rgb(168, 151, 100);animation-play-state:paused" ></path>
<path fill="#f47e5f" d="M77 55.4c-5.9-3.4-12.9-3.4-18.6-.6.4 6.4 3.9 12.4 9.8 15.9s12.9 3.4 18.6.5c-.4-6.3-3.8-12.4-9.8-15.8z" style="fill:rgb(168, 151, 100);animation-play-state:paused" ></path>
<path fill="#f7b26a" d="M68.2 29.3c-5.9 3.4-9.4 9.5-9.8 15.9 5.7 2.9 12.7 2.9 18.6-.5s9.4-9.5 9.8-15.9c-5.7-2.9-12.7-2.9-18.6.5z" style="fill:rgb(168, 151, 100);animation-play-state:paused" ></path>
<metadata xmlns:d="https://loading.io/stock/" style="animation-play-state:paused" ><d:name style="animation-play-state:paused" >leaf</d:name>


<d:tags style="animation-play-state:paused" >flower,plant,petal,leaflet,blossom,herb,leaf,spinner</d:tags>


<d:license style="animation-play-state:paused" >by</d:license>


<d:slug style="animation-play-state:paused" >y2ihfw</d:slug></metadata></g><!-- generated by https://loading.io/ --></svg>